<svg width="192" height="192" viewBox="0 0 192 192" fill="none" xmlns="http://www.w3.org/2000/svg">
<rect width="192" height="192" rx="2" fill="#BED558"/>
<rect x="7.5" y="7.5" width="176" height="176" rx="1.5" stroke="#573280"/>
<line x1="8" y1="16.5" x2="184" y2="16.5" stroke="#573280"/>
<line x1="8" y1="173.5" x2="184" y2="173.5" stroke="#573280"/>
<line x1="7" y1="72.5" x2="184" y2="72.5" stroke="#573280"/>
<line x1="8" y1="117.5" x2="184" y2="117.5" stroke="#573280"/>
<line x1="8" y1="95.5" x2="184" y2="95.5" stroke="#573280" stroke-dasharray="2 2"/>
<g filter="url(#filter0_d_186_23)">
<circle cx="51" cy="73" r="12" fill="#573280"/>
</g>
<g filter="url(#filter1_d_186_23)">
<circle cx="139" cy="118" r="12" fill="#573280"/>
</g>
<g filter="url(#filter2_d_186_23)">
<mask id="path-10-outside-1_186_23" maskUnits="userSpaceOnUse" x="86" y="91" width="17" height="10" fill="black">
<rect fill="white" x="86" y="91" width="17" height="10"/>
<path d="M94.6392 92.4545L92.3082 99H90.6037L88.2727 92.4545H89.9176L91.4219 97.3168H91.4901L92.9986 92.4545H94.6392ZM100.88 94.1847L99.4737 94.3381C99.4339 94.196 99.3643 94.0625 99.2649 93.9375C99.1683 93.8125 99.0376 93.7116 98.8729 93.6349C98.7081 93.5582 98.5064 93.5199 98.2678 93.5199C97.9467 93.5199 97.6768 93.5895 97.4581 93.7287C97.2422 93.8679 97.1357 94.0483 97.1385 94.2699C97.1357 94.4602 97.2053 94.6151 97.3473 94.7344C97.4922 94.8537 97.7308 94.9517 98.0632 95.0284L99.1797 95.267C99.799 95.4006 100.259 95.6122 100.56 95.902C100.864 96.1918 101.018 96.571 101.021 97.0398C101.018 97.4517 100.897 97.8153 100.658 98.1307C100.423 98.4432 100.094 98.6875 99.674 98.8636C99.2536 99.0398 98.7706 99.1278 98.2251 99.1278C97.424 99.1278 96.7791 98.9602 96.2905 98.625C95.8018 98.2869 95.5107 97.8168 95.4169 97.2145L96.9212 97.0696C96.9893 97.3651 97.1342 97.5881 97.3558 97.7386C97.5774 97.8892 97.8658 97.9645 98.2209 97.9645C98.5874 97.9645 98.8814 97.8892 99.103 97.7386C99.3274 97.5881 99.4396 97.402 99.4396 97.1804C99.4396 96.9929 99.3672 96.8381 99.2223 96.7159C99.0803 96.5937 98.8587 96.5 98.5575 96.4347L97.4411 96.2003C96.8132 96.0696 96.3487 95.8494 96.0476 95.5398C95.7464 95.2273 95.5973 94.8324 95.6001 94.3551C95.5973 93.9517 95.7067 93.6023 95.9283 93.3068C96.1527 93.0085 96.4638 92.7784 96.8615 92.6165C97.2621 92.4517 97.7237 92.3693 98.2464 92.3693C99.0135 92.3693 99.6172 92.5327 100.058 92.8594C100.501 93.1861 100.775 93.6278 100.88 94.1847Z"/>
</mask>
<path d="M94.6392 92.4545L92.3082 99H90.6037L88.2727 92.4545H89.9176L91.4219 97.3168H91.4901L92.9986 92.4545H94.6392ZM100.88 94.1847L99.4737 94.3381C99.4339 94.196 99.3643 94.0625 99.2649 93.9375C99.1683 93.8125 99.0376 93.7116 98.8729 93.6349C98.7081 93.5582 98.5064 93.5199 98.2678 93.5199C97.9467 93.5199 97.6768 93.5895 97.4581 93.7287C97.2422 93.8679 97.1357 94.0483 97.1385 94.2699C97.1357 94.4602 97.2053 94.6151 97.3473 94.7344C97.4922 94.8537 97.7308 94.9517 98.0632 95.0284L99.1797 95.267C99.799 95.4006 100.259 95.6122 100.56 95.902C100.864 96.1918 101.018 96.571 101.021 97.0398C101.018 97.4517 100.897 97.8153 100.658 98.1307C100.423 98.4432 100.094 98.6875 99.674 98.8636C99.2536 99.0398 98.7706 99.1278 98.2251 99.1278C97.424 99.1278 96.7791 98.9602 96.2905 98.625C95.8018 98.2869 95.5107 97.8168 95.4169 97.2145L96.9212 97.0696C96.9893 97.3651 97.1342 97.5881 97.3558 97.7386C97.5774 97.8892 97.8658 97.9645 98.2209 97.9645C98.5874 97.9645 98.8814 97.8892 99.103 97.7386C99.3274 97.5881 99.4396 97.402 99.4396 97.1804C99.4396 96.9929 99.3672 96.8381 99.2223 96.7159C99.0803 96.5937 98.8587 96.5 98.5575 96.4347L97.4411 96.2003C96.8132 96.0696 96.3487 95.8494 96.0476 95.5398C95.7464 95.2273 95.5973 94.8324 95.6001 94.3551C95.5973 93.9517 95.7067 93.6023 95.9283 93.3068C96.1527 93.0085 96.4638 92.7784 96.8615 92.6165C97.2621 92.4517 97.7237 92.3693 98.2464 92.3693C99.0135 92.3693 99.6172 92.5327 100.058 92.8594C100.501 93.1861 100.775 93.6278 100.88 94.1847Z" fill="#573280"/>
<path d="M94.6392 92.4545L95.5813 92.79L96.0568 91.4545H94.6392V92.4545ZM92.3082 99V100H93.0136L93.2503 99.3355L92.3082 99ZM90.6037 99L89.6616 99.3355L89.8983 100H90.6037V99ZM88.2727 92.4545V91.4545H86.8551L87.3307 92.79L88.2727 92.4545ZM89.9176 92.4545L90.8729 92.159L90.655 91.4545H89.9176V92.4545ZM91.4219 97.3168L90.4665 97.6123L90.6845 98.3168H91.4219V97.3168ZM91.4901 97.3168V98.3168H92.2268L92.4451 97.6131L91.4901 97.3168ZM92.9986 92.4545V91.4545H92.2618L92.0435 92.1582L92.9986 92.4545ZM93.6972 92.1191L91.3662 98.6645L93.2503 99.3355L95.5813 92.79L93.6972 92.1191ZM92.3082 98H90.6037V100H92.3082V98ZM91.5457 98.6645L89.2148 92.1191L87.3307 92.79L89.6616 99.3355L91.5457 98.6645ZM88.2727 93.4545H89.9176V91.4545H88.2727V93.4545ZM88.9623 92.7501L90.4665 97.6123L92.3772 97.0212L90.8729 92.159L88.9623 92.7501ZM91.4219 98.3168H91.4901V96.3168H91.4219V98.3168ZM92.4451 97.6131L93.9537 92.7509L92.0435 92.1582L90.535 97.0204L92.4451 97.6131ZM92.9986 93.4545H94.6392V91.4545H92.9986V93.4545ZM100.88 94.1847L100.988 95.1788L102.063 95.0615L101.863 93.9992L100.88 94.1847ZM99.4737 94.3381L98.5108 94.6077L98.7394 95.4241L99.5822 95.3322L99.4737 94.3381ZM99.2649 93.9375L98.4736 94.549L98.4823 94.56L99.2649 93.9375ZM98.8729 93.6349L99.2949 92.7284L99.2949 92.7284L98.8729 93.6349ZM97.4581 93.7287L96.9212 92.885L96.9162 92.8882L97.4581 93.7287ZM97.1385 94.2699L98.1384 94.2848L98.1386 94.2709L98.1384 94.2571L97.1385 94.2699ZM97.3473 94.7344L96.7041 95.5001L96.7116 95.5063L97.3473 94.7344ZM98.0632 95.0284L97.8384 96.0028L97.8463 96.0046L97.8542 96.0063L98.0632 95.0284ZM99.1797 95.267L99.3904 94.2895L99.3887 94.2891L99.1797 95.267ZM100.56 95.902L99.867 96.6226L99.8704 96.6258L100.56 95.902ZM101.021 97.0398L102.021 97.0467L102.021 97.0337L101.021 97.0398ZM100.658 98.1307L99.861 97.5272L99.8601 97.5284L100.658 98.1307ZM99.674 98.8636L100.06 99.786L99.674 98.8636ZM96.2905 98.625L95.7215 99.4474L95.7248 99.4496L96.2905 98.625ZM95.4169 97.2145L95.321 96.2191L94.2657 96.3207L94.4288 97.3683L95.4169 97.2145ZM96.9212 97.0696L97.8956 96.8447L97.6983 95.9901L96.8253 96.0742L96.9212 97.0696ZM97.3558 97.7386L97.9178 96.9115L97.9178 96.9115L97.3558 97.7386ZM99.103 97.7386L98.5458 96.9082L98.541 96.9115L99.103 97.7386ZM99.2223 96.7159L98.5702 97.4741L98.5777 97.4804L99.2223 96.7159ZM98.5575 96.4347L98.7696 95.4574L98.763 95.456L98.5575 96.4347ZM97.4411 96.2003L97.6465 95.2216L97.6448 95.2213L97.4411 96.2003ZM96.0476 95.5398L95.3275 96.2337L95.3307 96.2369L96.0476 95.5398ZM95.6001 94.3551L96.6002 94.3611L96.6001 94.3481L95.6001 94.3551ZM95.9283 93.3068L95.1292 92.7056L95.1283 92.7068L95.9283 93.3068ZM96.8615 92.6165L97.2386 93.5427L97.2419 93.5413L96.8615 92.6165ZM100.058 92.8594L99.4617 93.6625L99.4642 93.6643L100.058 92.8594ZM100.772 93.1906L99.3653 93.344L99.5822 95.3322L100.988 95.1788L100.772 93.1906ZM100.437 94.0684C100.358 93.7876 100.223 93.5357 100.048 93.315L98.4823 94.56C98.5056 94.5893 98.5099 94.6045 98.5108 94.6077L100.437 94.0684ZM100.056 93.3261C99.8481 93.0567 99.5827 92.8623 99.2949 92.7284L98.4508 94.5415C98.4729 94.5518 98.4822 94.5588 98.4835 94.5598C98.4843 94.5604 98.4798 94.5569 98.4736 94.5489L100.056 93.3261ZM99.2949 92.7284C98.9634 92.574 98.6085 92.5199 98.2678 92.5199V94.5199C98.4042 94.5199 98.4528 94.5424 98.4508 94.5415L99.2949 92.7284ZM98.2678 92.5199C97.8018 92.5199 97.3348 92.6219 96.9212 92.885L97.995 94.5724C98.0189 94.5571 98.0916 94.5199 98.2678 94.5199V92.5199ZM96.9162 92.8882C96.4651 93.1791 96.1306 93.657 96.1386 94.2827L98.1384 94.2571C98.1392 94.3184 98.1227 94.4001 98.0773 94.4769C98.0356 94.5476 97.9937 94.5732 98 94.5692L96.9162 92.8882ZM96.1386 94.255C96.1314 94.7368 96.325 95.1816 96.7041 95.5001L97.9905 93.9687C98.0239 93.9967 98.0682 94.0465 98.1006 94.1187C98.1328 94.1902 98.1389 94.2515 98.1384 94.2848L96.1386 94.255ZM96.7116 95.5063C97.0375 95.7747 97.4593 95.9153 97.8384 96.0028L98.2881 94.054C98.159 94.0242 98.0709 93.9954 98.0149 93.9724C97.956 93.9482 97.9555 93.9398 97.983 93.9624L96.7116 95.5063ZM97.8542 96.0063L98.9707 96.245L99.3887 94.2891L98.2722 94.0505L97.8542 96.0063ZM98.9689 96.2446C99.4936 96.3577 99.7519 96.5118 99.867 96.6226L101.254 95.1814C100.767 94.7126 100.104 94.4434 99.3904 94.2895L98.9689 96.2446ZM99.8704 96.6258C99.9541 96.7056 100.019 96.8138 100.021 97.0458L102.021 97.0337C102.016 96.3283 101.775 95.6779 101.25 95.1782L99.8704 96.6258ZM100.021 97.0329C100.019 97.2389 99.9639 97.3912 99.861 97.5272L101.456 98.7341C101.83 98.2394 102.016 97.6645 102.021 97.0467L100.021 97.0329ZM99.8601 97.5284C99.7473 97.6779 99.572 97.8222 99.2876 97.9413L100.06 99.786C100.617 99.5528 101.098 99.2085 101.457 98.733L99.8601 97.5284ZM99.2876 97.9413C99.0111 98.0571 98.6635 98.1278 98.2251 98.1278V100.128C98.8777 100.128 99.496 100.022 100.06 99.786L99.2876 97.9413ZM98.2251 98.1278C97.5564 98.1278 97.1289 97.9875 96.8562 97.8004L95.7248 99.4496C96.4293 99.9329 97.2916 100.128 98.2251 100.128V98.1278ZM96.8594 97.8026C96.6027 97.625 96.4578 97.4 96.405 97.0607L94.4288 97.3683C94.5635 98.2336 95.0009 98.9488 95.7215 99.4474L96.8594 97.8026ZM95.5128 98.2099L97.017 98.065L96.8253 96.0742L95.321 96.2191L95.5128 98.2099ZM95.9468 97.2945C96.0636 97.8006 96.336 98.2547 96.7938 98.5658L97.9178 96.9115C97.9158 96.9101 97.9163 96.9102 97.9179 96.9118C97.9195 96.9135 97.9201 96.9145 97.9195 96.9137C97.9189 96.9127 97.907 96.8945 97.8956 96.8447L95.9468 97.2945ZM96.7938 98.5658C97.2273 98.8603 97.7295 98.9645 98.2209 98.9645V96.9645C98.002 96.9645 97.9275 96.9181 97.9178 96.9115L96.7938 98.5658ZM98.2209 98.9645C98.716 98.9645 99.2268 98.8635 99.665 98.5658L98.541 96.9115C98.536 96.9149 98.4587 96.9645 98.2209 96.9645V98.9645ZM99.6601 98.5691C100.092 98.2794 100.44 97.811 100.44 97.1804H98.4396C98.4396 97.113 98.4593 97.0358 98.4991 96.9697C98.5347 96.9108 98.5654 96.8951 98.5459 96.9082L99.6601 98.5691ZM100.44 97.1804C100.44 96.6945 100.234 96.2612 99.8669 95.9514L98.5777 97.4804C98.5516 97.4584 98.5111 97.4148 98.4795 97.3474C98.4479 97.2798 98.4396 97.2188 98.4396 97.1804H100.44ZM99.8743 95.9577C99.5496 95.6785 99.1403 95.5378 98.7696 95.4574L98.3455 97.4119C98.4512 97.4349 98.5198 97.458 98.5599 97.4749C98.601 97.4923 98.5964 97.4966 98.5703 97.4741L99.8743 95.9577ZM98.763 95.456L97.6465 95.2216L97.2356 97.179L98.3521 97.4133L98.763 95.456ZM97.6448 95.2213C97.123 95.1127 96.8742 94.9554 96.7645 94.8426L95.3307 96.2369C95.8232 96.7434 96.5034 97.0266 97.2373 97.1793L97.6448 95.2213ZM96.7677 94.8459C96.6664 94.7408 96.5987 94.606 96.6001 94.3611L94.6002 94.3492C94.5959 95.0588 94.8265 95.7138 95.3275 96.2337L96.7677 94.8459ZM96.6001 94.3481C96.5987 94.142 96.6502 94.0109 96.7283 93.9068L95.1283 92.7068C94.7631 93.1937 94.5959 93.7614 94.6002 94.3622L96.6001 94.3481ZM96.7274 93.908C96.8276 93.7748 96.9827 93.6468 97.2386 93.5427L96.4844 91.6903C95.9448 91.91 95.4778 92.2422 95.1292 92.7056L96.7274 93.908ZM97.2419 93.5413C97.4996 93.4353 97.8279 93.3693 98.2464 93.3693V91.3693C97.6196 91.3693 97.0245 91.4681 96.4811 91.6917L97.2419 93.5413ZM98.2464 93.3693C98.8824 93.3693 99.2504 93.5057 99.4617 93.6625L100.653 92.0563C99.984 91.5596 99.1446 91.3693 98.2464 91.3693V93.3693ZM99.4642 93.6643C99.6975 93.8363 99.8376 94.0536 99.8973 94.3702L101.863 93.9992C101.712 93.2021 101.304 92.5358 100.651 92.0544L99.4642 93.6643Z" fill="white" mask="url(#path-10-outside-1_186_23)"/>
</g>
<path d="M95 118L95 174M95 16V73" stroke="#573280"/>
<defs>
<filter id="filter0_d_186_23" x="35" y="61" width="32" height="32" filterUnits="userSpaceOnUse" color-interpolation-filters="sRGB">
<feFlood flood-opacity="0" result="BackgroundImageFix"/>
<feColorMatrix in="SourceAlpha" type="matrix" values="0 0 0 0 0 0 0 0 0 0 0 0 0 0 0 0 0 0 127 0" result="hardAlpha"/>
<feOffset dy="4"/>
<feGaussianBlur stdDeviation="2"/>
<feComposite in2="hardAlpha" operator="out"/>
<feColorMatrix type="matrix" values="0 0 0 0 0 0 0 0 0 0 0 0 0 0 0 0 0 0 0.25 0"/>
<feBlend mode="normal" in2="BackgroundImageFix" result="effect1_dropShadow_186_23"/>
<feBlend mode="normal" in="SourceGraphic" in2="effect1_dropShadow_186_23" result="shape"/>
</filter>
<filter id="filter1_d_186_23" x="123" y="106" width="32" height="32" filterUnits="userSpaceOnUse" color-interpolation-filters="sRGB">
<feFlood flood-opacity="0" result="BackgroundImageFix"/>
<feColorMatrix in="SourceAlpha" type="matrix" values="0 0 0 0 0 0 0 0 0 0 0 0 0 0 0 0 0 0 127 0" result="hardAlpha"/>
<feOffset dy="4"/>
<feGaussianBlur stdDeviation="2"/>
<feComposite in2="hardAlpha" operator="out"/>
<feColorMatrix type="matrix" values="0 0 0 0 0 0 0 0 0 0 0 0 0 0 0 0 0 0 0.25 0"/>
<feBlend mode="normal" in2="BackgroundImageFix" result="effect1_dropShadow_186_23"/>
<feBlend mode="normal" in="SourceGraphic" in2="effect1_dropShadow_186_23" result="shape"/>
</filter>
<filter id="filter2_d_186_23" x="84.2729" y="92.3694" width="20.7476" height="14.7585" filterUnits="userSpaceOnUse" color-interpolation-filters="sRGB">
<feFlood flood-opacity="0" result="BackgroundImageFix"/>
<feColorMatrix in="SourceAlpha" type="matrix" values="0 0 0 0 0 0 0 0 0 0 0 0 0 0 0 0 0 0 127 0" result="hardAlpha"/>
<feOffset dy="4"/>
<feGaussianBlur stdDeviation="2"/>
<feComposite in2="hardAlpha" operator="out"/>
<feColorMatrix type="matrix" values="0 0 0 0 0 0 0 0 0 0 0 0 0 0 0 0 0 0 0.25 0"/>
<feBlend mode="normal" in2="BackgroundImageFix" result="effect1_dropShadow_186_23"/>
<feBlend mode="normal" in="SourceGraphic" in2="effect1_dropShadow_186_23" result="shape"/>
</filter>
</defs>
</svg>
